HIERARCHY
ROOT Hips
{
    OFFSET 0.0 0.0 0.0
    CHANNELS 6 Xposition Yposition Zposition Xrotation Yrotation Zrotation
    JOINT Spine
    {
        OFFSET 0.0 25.335010047670025 0.0
        CHANNELS 6 Xposition Yposition Zposition Xrotation Yrotation Zrotation
        JOINT LeftUpperArm
        {
            OFFSET 16.372229540129258 25.524455400237052 0.0
            CHANNELS 6 Xposition Yposition Zposition Xrotation Yrotation Zrotation
            JOINT LeftLowerArm
            {
                OFFSET 31.828304997414094 0.0 0.0
                CHANNELS 6 Xposition Yposition Zposition Xrotation Yrotation Zrotation
                End Site
                {
                OFFSET 6.934956540289116 0.0 0.0
                }
            }
        }
        JOINT RightUpperArm
        {
            OFFSET -16.372229540129258 25.524455400237052 0.0
            CHANNELS 6 Xposition Yposition Zposition Xrotation Yrotation Zrotation
            JOINT RightLowerArm
            {
                OFFSET -31.828304997414094 0.0 0.0
                CHANNELS 6 Xposition Yposition Zposition Xrotation Yrotation Zrotation
                End Site
                {
                OFFSET 6.934956540289116 0.0 0.0
                }
            }
        }
    }
    JOINT LeftUpperLeg
    {
        OFFSET 8.996378831507265 0.0 0.0
        CHANNELS 6 Xposition Yposition Zposition Xrotation Yrotation Zrotation
    }
    JOINT RightUpperLeg
    {
        OFFSET -8.996378831507265 0.0 0.0
        CHANNELS 6 Xposition Yposition Zposition Xrotation Yrotation Zrotation
    }
}
MOTION
Frames: 8
Frame Time: 0.03333333333333333
-0.1450874195056616 -0.17367399995001542 -0.09269338241295974 15.340840569984636 10.018472433882977 2.087473986922026 -0.2539739402594084 -25.53562814400293 -9.432558900623889e-16 -0.0 -0.0 -0.0 -15.668303010345161 23.204870400646943 -7.814469626548812 171.44581914840145 10.093989910304016 -2.239144004621308 -21.496562201045514 -1.1490167596321461 1.7067121085707238 124.07090782132674 4.53301254333927 3.0596158204789305 -3.336325153787644 -30.6205960358519 6.958845895961415 176.64338409379633 -5.8475100410804455 -159.61813051988597 -23.008473727077224 -2.8609871685850607 8.343352436593843 110.16519633334707 19.79124688611478 7.088058333424618 0.3277699920805464 -0.7110347083235987 8.656217189487347 7.2917574395792775 84.8317224397964 114.74857127630423 1.4436694985244847 -4.641897304386896 -7.204977956266161 -174.85670605726233 55.99238139049161 -72.7238623552814
-0.14497516651003572 -0.17369892845083645 -0.0926233681097791 15.31859980006214 10.00825836874712 2.0950994522100754 -0.2527287479364011 -25.53520584082363 1.0842021724855044e-16 -0.0 -0.0 -0.0 -15.667833880731493 23.16197469138917 -7.927139554591378 171.1515038301667 10.07139209442468 -2.2861389787254582 -21.49827377092827 -1.1587722895302466 1.698840015855252 124.4193162161526 4.511725018725657 3.0852978005780196 -3.327799075258056 -30.61047832901681 7.013845225672902 176.7480491945822 -5.8985464208362535 -159.60989114539734 -23.029086090767084 -2.956174568441204 8.27629995590337 110.92241724327495 19.619105352721274 7.314883632874962 0.3244042332962952 -0.7108311301215806 8.654173300966086 7.121462330370749 84.84093848423827 114.5306822815721 1.4455838872412727 -4.63971326867523 -7.20337299705576 -174.80111612828776 55.99475074643683 -72.69466291989322
-0.14478471947812593 -0.1736844996677042 -0.09260129513592683 15.307499208930356 10.002421172966725 2.1055450142860477 -0.2496982056971105 -25.535126649418434 2.1684043449710089e-16 -0.0 -0.0 -0.0 -15.660454026807145 23.085872382132095 -8.147295606199014 170.6047161106009 10.009374512710052 -2.3790575137995162 -21.498200635686647 -1.1792051984310077 1.689038959321204 125.04387033741556 4.485587181312946 3.1396043562719647 -3.320257117789463 -30.591068714899507 7.105542239941344 176.92045545190345 -5.97346729584917 -159.6059153483122 -23.052159029314595 -2.9608244599635363 8.231457696743682 111.04293968425465 19.502632522143248 7.31901129372075 0.3181917387200063 -0.7109750977597953 8.652291839330859 6.838000686590067 84.8557673438385 114.11055580740877 1.4479665662905838 -4.632973505891814 -7.204709221181983 -174.70661827438903 56.030975439390055 -72.6441462828294
-0.1446412759460296 -0.1736502148432121 -0.09262231112963307 15.317130987847424 9.9993276841997 2.1194684375816837 -0.24445253364242508 -25.53611246124482 -2.0166160408230382e-15 -0.0 -0.0 -0.0 -15.658459255014122 23.0637097971424 -8.206650678110924 170.43752841221212 9.99707550261433 -2.3986272595587006 -21.49500085288068 -1.188679978193924 1.6928975336912344 125.1991768436665 4.496348567207565 3.16524980180015 -3.307107325556992 -30.586289341493433 7.134573435628538 176.96943111481332 -6.034417827987201 -159.58064334764524 -23.080633378462235 -2.8708933626374193 8.242353875944147 110.42443673698995 19.513325717647025 7.0903403918404315 0.3143151890391396 -0.7102682897251185 8.650510047903051 6.6348272758483855 84.86931203151883 113.87083844793504 1.450821861205737 -4.633171652829031 -7.201627283662384 -174.66765575905856 56.0139168628789 -72.612681652093
-0.1445808851935358 -0.1736714669983456 -0.09265393234064967 15.331606706702434 9.99957999639972 2.1396482377768447 -0.2364731853517045 -25.536396296044327 -4.0115480381963664e-16 -0.0 -0.0 -0.0 -15.652159712865767 23.02045968976154 -8.333877824995621 170.09788374356995 9.973709034078091 -2.450481982962301 -21.490449965066354 -1.205146244318206 1.6954892023669288 125.53129971253188 4.503959736156409 3.209683744948573 -3.26470263742555 -30.58883077103 7.133572224397547 176.9659955237895 -6.0823768835598555 -159.487790160958 -23.086696602174754 -2.703570413171795 8.35430420161063 109.09743542810004 19.768973796768794 6.679208069980971 0.30960776978192023 -0.7108670994602486 8.649368571212426 6.345460956416761 84.87747085747883 113.53482912371386 1.4546534705488259 -4.630064397101108 -7.201336865068781 -174.61072295426476 56.02279215967237 -72.55855130862882
-0.14447723851330696 -0.17344109499841204 -0.09294976513721447 15.441689043760075 9.995971165625539 2.172249437676923 -0.22193364187698714 -25.539238741193127 3.469446951953614e-16 -0.0 -0.0 -0.0 -15.622394758318176 22.826351119857996 -8.91756528808628 168.58132271296353 9.841245844730118 -2.7226575716208705 -21.473858212028667 -1.248101653497008 1.6679298809743726 126.93609279568967 4.433940376939149 3.3263978089114636 -3.240230750511458 -30.6631448291218 6.755930677765116 176.31981886138607 -5.949367208726346 -159.34147379442018 -23.089817812795598 -2.6052179412810403 8.507936825292434 108.16776623684962 20.11010896237869 6.43744214602188 0.30696602945895096 -0.7143033119131954 8.64755927400738 5.958723243033434 84.86257080071144 113.25522099580591 1.4572879851382416 -4.63305190843613 -7.196935493960679 -174.6865637872194 55.98664042750036 -72.53946458011575
-0.14444098045809758 -0.17322044585006097 -0.09321311736152615 15.527831499488887 10.004582672508024 2.199435980995015 -0.20924611504080926 -25.53790341259518 3.5778671692021646e-16 -0.0 -0.0 -0.0 -15.589979751047501 22.706996642451088 -9.28406138912379 167.61019378979057 9.746103931584125 -2.916533628284408 -21.463376367144257 -1.2621369585686408 1.6332304099122341 127.82400669884557 4.343993887932979 3.3653577376037656 -3.2281585050368746 -30.738694954320465 6.31905390813209 175.5132387064906 -5.867322189825134 -159.22635552045068 -23.077622850226927 -1.775305528927016 8.858224188684261 102.14610188073273 20.942547637400324 4.3989614765363445 0.3050341637650618 -0.7175755594930904 8.64643128067111 5.6502335646124076 84.84711657194944 113.02985748646876 1.4586602731576086 -4.630381776708748 -7.19726400970875 -174.74408493295581 55.99953231950726 -72.51455940852333
-0.14441827544205585 -0.17312750238582367 -0.09347425960013207 15.593491302429463 10.039023637628407 2.231171093868385 -0.1945582406375273 -25.53924209746291 -1.7564075194265172e-15 -0.0 -0.0 -0.0 -15.564576261625618 22.575398821493454 -9.625099448932925 166.66749963099636 9.707076755848462 -3.106196171715355 -21.45651136535204 -1.264903102874132 1.587990000497136 128.66334305788791 4.225417272717106 3.373792974595871 -3.2737263758120063 -30.772392749350413 6.117383414584425 175.12375974231333 -5.911345918203938 -159.26372577290152 -23.065383088138113 -0.9064752073936077 9.097659178846268 96.11762849989593 21.510634150265176 2.2505799711447008 0.30412897893518553 -0.7263639458719369 8.646169670417612 5.26952323101819 84.7960528363928 112.7190872174818 1.4590370823198378 -4.612823912626209 -7.208981573763359 -174.7446567100536 56.13376007064801 -72.44782708531581
